<svg viewBox="0 0 60 59" width="47" height="41" xmlns="http://www.w3.org/2000/svg"><defs><linearGradient x1="170.649%" y1="50%" x2="-44.317%" y2="170.246%" id="a"><stop stop-color="#FF52C1" offset="0%"/><stop stop-color="#9952FF" offset="100%"/></linearGradient></defs><g id="Page-1" fill="url(#a)" fill-rule="evenodd"><g id="046---Tying-Chats" fill="url(#a)" fill-rule="evenodd"><path id="Shape" d="m6 6h3c.55228475 0 1-.44771525 1-1s-.44771525-1-1-1h-4c-.55228475 0-1 .44771525-1 1v4c0 .55228475.44771525 1 1 1s1-.44771525 1-1z"/><path id="Shape" d="m55 21h-13v-16c-.0033061-2.76005315-2.2399468-4.99669388-5-5h-32c-2.76005315.00330612-4.99669388 2.23994685-5 5v20c.00330612 2.7600532 2.23994685 4.9966939 5 5h1.883l-.563 5.057c-.10012257.8449532.35133077 1.6592607 1.121 2.022.27280514.1319332.57196713.2003131.875.2.52896076-.0009325 1.03557954-.2133739 1.407-.59l6.691-6.689h1.586v16c.0033061 2.7600532 2.2399468 4.9966939 5 5h20.586l6.691 6.691c.3714205.3766261.8780392.5890675 1.407.59.3030329.0003131.6021949-.0680668.875-.2.7696692-.3627393 1.2211226-1.1770468 1.121-2.022l-.563-5.059h1.883c2.7600532-.0033061 4.9966939-2.2399468 5-5v-20c-.0033061-2.7600532-2.2399468-4.9966939-5-5zm-39 7c-.2651948.0000566-.5195073.1054506-.707.293l-6.984 6.984.685-6.167c.03128174-.2826537-.05925917-.5652572-.24897118-.7771087-.18971202-.2118514-.46064935-.3329108-.74502882-.3328913h-3c-1.65685425 0-3-1.3431458-3-3v-20c0-1.65685425 1.34314575-3 3-3h32c1.6568542 0 3 1.34314575 3 3v20c0 1.6568542-1.3431458 3-3 3zm42 18c0 1.6568542-1.3431458 3-3 3h-3c-.2843795-.0000195-.5553168.1210399-.7450288.3328913-.189712.2118515-.2802529.494455-.2489712.7771087l.685 6.167-6.984-6.984c-.1874927-.1875494-.4418052-.2929434-.707-.293h-21c-1.6568542 0-3-1.3431458-3-3v-16h17c2.7600532-.0033061 4.9966939-2.2399468 5-5v-2h13c1.6568542 0 3 1.3431458 3 3z"/><path id="Shape" d="m55 41c-.5522847 0-1 .4477153-1 1v3h-3c-.5522847 0-1 .4477153-1 1s.4477153 1 1 1h4c.5522847 0 1-.4477153 1-1v-4c0-.5522847-.4477153-1-1-1z"/><path id="Shape" d="m10 11c-2.209139 0-4 1.790861-4 4s1.790861 4 4 4 4-1.790861 4-4-1.790861-4-4-4zm0 6c-1.1045695 0-2-.8954305-2-2s.8954305-2 2-2 2 .8954305 2 2-.8954305 2-2 2z"/><path id="Shape" d="m32 11c-2.209139 0-4 1.790861-4 4s1.790861 4 4 4 4-1.790861 4-4-1.790861-4-4-4zm0 6c-1.1045695 0-2-.8954305-2-2s.8954305-2 2-2 2 .8954305 2 2-.8954305 2-2 2z"/><path id="Shape" d="m21 11c-2.209139 0-4 1.790861-4 4s1.790861 4 4 4 4-1.790861 4-4-1.790861-4-4-4zm0 6c-1.1045695 0-2-.8954305-2-2s.8954305-2 2-2 2 .8954305 2 2-.8954305 2-2 2z"/><path id="Shape" d="m28 32c-2.209139 0-4 1.790861-4 4s1.790861 4 4 4 4-1.790861 4-4-1.790861-4-4-4zm0 6c-1.1045695 0-2-.8954305-2-2s.8954305-2 2-2 2 .8954305 2 2-.8954305 2-2 2z"/><path id="Shape" d="m54 36c0-2.209139-1.790861-4-4-4s-4 1.790861-4 4 1.790861 4 4 4 4-1.790861 4-4zm-6 0c0-1.1045695.8954305-2 2-2s2 .8954305 2 2-.8954305 2-2 2-2-.8954305-2-2z"/><path id="Shape" d="m39 32c-2.209139 0-4 1.790861-4 4s1.790861 4 4 4 4-1.790861 4-4-1.790861-4-4-4zm0 6c-1.1045695 0-2-.8954305-2-2s.8954305-2 2-2 2 .8954305 2 2-.8954305 2-2 2z"/></g></g></svg>